<svg xmlns="http://www.w3.org/2000/svg" version="1.1" xmlns:xlink="http://www.w3.org/1999/xlink" xmlns:svgjs="http://svgjs.dev/svgjs" width="1000" height="1000" viewBox="0 0 1000 1000"><rect width="1000" height="1000" fill="#000000"></rect><g transform="matrix(0.7,0,0,0.7,147.02903133639978,268.4876113360324)"><svg viewBox="0 0 373 247" data-background-color="#ffffff" preserveAspectRatio="xMidYMid meet" height="662" width="1000" xmlns="http://www.w3.org/2000/svg" xmlns:xlink="http://www.w3.org/1999/xlink"><defs></defs><g id="tight-bounds" transform="matrix(1,0,0,1,3.731037816874931,-0.09999999999999432)"><svg viewBox="0 0 369.2295574153846 247.2" height="247.2" width="369.2295574153846"><g><svg viewBox="0 0 369.2295574153846 247.2" height="247.2" width="369.2295574153846"><g transform="matrix(1,0,0,1,174.3218651076923,0)"><svg viewBox="0 0 194.9076923076923 247.2" height="247.2" width="194.9076923076923"><g><svg viewBox="0 0 194.9076923076923 247.2" height="247.2" width="194.9076923076923"><g><svg viewBox="0 0 194.9076923076923 247.2" height="247.2" width="194.9076923076923"><g transform="matrix(1,0,0,1,0,0)"><svg width="194.9076923076923" viewBox="0.9499959945678711 -36 30.750003814697266 36" height="247.2" data-palette-color="#152232"><svg></svg><g class="undefined-text-0" data-fill-palette-color="primary" id="text-0"><path d="M7.3-36h14.5c3.8 0 6.5 0.833 8.1 2.5v0c1.2 1.267 1.8 2.867 1.8 4.8v0c0 0.667-0.067 1.367-0.2 2.1v0l-0.7 3.9c-0.4 2.167-1.09 3.917-2.07 5.25-0.987 1.333-2.08 2.283-3.28 2.85v0l4.55 14.6h-10.1l-4.2-13.45h-3.1l-2.05 13.45h-9.6zM18.65-28.2v0h-3.75l-1.3 8.7h3.5c1.767 0 3.033-0.427 3.8-1.28 0.767-0.847 1.15-1.97 1.15-3.37v0c0-2.7-1.133-4.05-3.4-4.05z" data-fill-palette-color="primary" fill="#ffffff" opacity="1"></path></g></svg></g></svg></g></svg></g></svg></g><g transform="matrix(1,0,0,1,0,56.155062560938234)"><svg viewBox="0 0 120.45295384615383 134.88987487812352" height="134.88987487812352" width="120.45295384615383"><g><svg xmlns="http://www.w3.org/2000/svg" viewBox="2 4 50.00646209716797 56" x="0" y="0" height="134.88987487812352" width="120.45295384615383" class="icon-icon-0" data-fill-palette-color="accent" id="icon-0"><path d="M8 31a1 1 0 0 0-2 0 20.373 20.373 0 0 0 4.713 13.019l0.519 0.622a1 1 0 1 0 1.536-1.282l-0.519-0.622A18.369 18.369 0 0 1 8 31Z" fill="#ffffff" data-fill-palette-color="accent"></path><path d="M7.232 46.641a1 1 0 1 0 1.536-1.282l-0.518-0.622A18.369 18.369 0 0 1 4 33a1 1 0 0 0-2 0A20.373 20.373 0 0 0 6.713 46.019Z" fill="#ffffff" data-fill-palette-color="accent"></path><path d="M43.314 39.313a15.808 15.808 0 0 0 3.26-4.732l-12.854-4.861 4.861 12.854A15.803 15.803 0 0 0 43.314 39.313Z" fill="#ffffff" data-fill-palette-color="accent"></path><path d="M25.419 13.426a15.86 15.86 0 0 0-7.993 7.993l12.854 4.861Z" fill="#ffffff" data-fill-palette-color="accent"></path><path d="M25.419 42.574l4.861-12.854-12.854 4.861a15.86 15.86 0 0 0 7.993 7.993Z" fill="#ffffff" data-fill-palette-color="accent"></path><polygon points="33.78 4 30.22 4 32 12.901 33.78 4" fill="#ffffff" data-fill-palette-color="accent"></polygon><path d="M16.721 32.709l11.438-4.326L29.173 28l-1.014-0.383L16.721 23.291A16.001 16.001 0 0 0 16.721 32.709Z" fill="#ffffff" data-fill-palette-color="accent"></path><path d="M32 25.173l4.709-12.452a16.073 16.073 0 0 0-2.526-0.538l-1.203 6.013a1 1 0 0 1-1.961 0l-1.202-6.011a16.008 16.008 0 0 0-2.526 0.536Z" fill="#ffffff" data-fill-palette-color="accent"></path><path d="M36.709 43.279L32 30.827 27.291 43.279A15.996 15.996 0 0 0 36.709 43.279Z" fill="#ffffff" data-fill-palette-color="accent"></path><path d="M32 49.989a22.134 22.134 0 0 1-6-0.839V56H38V49.15A22.134 22.134 0 0 1 32 49.989Z" fill="#ffffff" data-fill-palette-color="accent"></path><path d="M40 58H24a3.005 3.005 0 0 0-2.829 2H42.829A3.005 3.005 0 0 0 40 58Z" fill="#ffffff" data-fill-palette-color="accent"></path><path d="M46.142 13.857A19.767 19.767 0 0 0 34.972 8.237l-0.394 1.97a18.148 18.148 0 1 1-5.156-0.001l-0.394-1.966a19.985 19.985 0 1 0 17.114 5.617Z" fill="#ffffff" data-fill-palette-color="accent"></path><path d="M38.581 13.426L33.72 26.28l12.854-4.861a15.86 15.86 0 0 0-7.993-7.993ZM42 20H40V18h2Z" fill="#ffffff" data-fill-palette-color="accent"></path><path d="M47.279 23.291L35.841 27.617 34.827 28l1.014 0.383L47.279 32.709A16.001 16.001 0 0 0 47.279 23.291Z" fill="#ffffff" data-fill-palette-color="accent"></path></svg></g></svg></g></svg></g></svg><rect width="369.2295574153846" height="247.2" fill="none" stroke="none" visibility="hidden"></rect></g></svg></g></svg>